# xmcd
#
# Track frame offsets: 
#        150
#        17111
#        33461
#        48428
#        65801
#        82203
#        97680
#        115602
#        130043
#        145412
#        162362
#        178431
#
# Disc length: 2614 seconds
#
# Revision: 0
# Processed by: cddbd v1.5.2PL0 Copyright (c) Steve Scherf et al.
# Submitted via: ExactAudioCopy v1.0b3
#
DISCID=a70a340c
DTITLE=Demis Roussos - Auf Wiederseh'n CD 4
DYEAR=1974
DGENRE=Pop
TTITLE0=Manuela
TTITLE1=So Wie Bist Du
TTITLE2=Walzer Fuer Zwei
TTITLE3=Ich Liebe Dich Noch Immer
TTITLE4=Addio
TTITLE5=Wind Wind
TTITLE6=Mara
TTITLE7=Brauchts Du Einen Freund
TTITLE8=Schones Madchen Aus Arcadia
TTITLE9=Deine Liebe Wird Mir Fehlen
TTITLE10=Auf Wiederseh'n
TTITLE11=Goodbye My Love, Goodbye
EXTD=
EXTT0=
EXTT1=
EXTT2=
EXTT3=
EXTT4=
EXTT5=
EXTT6=
EXTT7=
EXTT8=
EXTT9=
EXTT10=
EXTT11=
PLAYORDER=
